<mxfile host="app.diagrams.net" modified="2022-07-12T06:46:27.691Z" agent="5.0 (Macintosh; Intel Mac OS X 10_15_7) AppleWebKit/537.36 (KHTML, like Gecko) Chrome/102.0.5005.61 Safari/537.36" etag="qFi5C74cjaABx4OaIJDU" version="20.0.4" type="github">
  <diagram id="c9tKn7moXCY9H5sZiD9-" name="Page-1">
    <mxGraphModel dx="1426" dy="688" grid="1" gridSize="10" guides="1" tooltips="1" connect="1" arrows="1" fold="1" page="1" pageScale="1" pageWidth="827" pageHeight="1169" math="0" shadow="0">
      <root>
        <mxCell id="0" />
        <mxCell id="1" parent="0" />
        <mxCell id="6ounYKq_41smJYsyej_T-2" value="" style="rounded=1;whiteSpace=wrap;html=1;absoluteArcSize=1;arcSize=14;strokeWidth=2;" parent="1" vertex="1">
          <mxGeometry x="40" y="70" width="400" height="360" as="geometry" />
        </mxCell>
        <mxCell id="6ounYKq_41smJYsyej_T-4" value="ASearchPro" style="text;strokeColor=none;fillColor=none;align=left;verticalAlign=middle;spacingLeft=4;spacingRight=4;overflow=hidden;points=[[0,0.5],[1,0.5]];portConstraint=eastwest;rotatable=0;" parent="1" vertex="1">
          <mxGeometry x="200" y="80" width="80" height="30" as="geometry" />
        </mxCell>
        <mxCell id="6ounYKq_41smJYsyej_T-12" value="" style="rounded=1;whiteSpace=wrap;html=1;absoluteArcSize=1;arcSize=14;strokeWidth=2;" parent="1" vertex="1">
          <mxGeometry x="570" y="70" width="400" height="360" as="geometry" />
        </mxCell>
        <mxCell id="6ounYKq_41smJYsyej_T-25" style="edgeStyle=orthogonalEdgeStyle;rounded=0;orthogonalLoop=1;jettySize=auto;html=1;exitX=1;exitY=0.5;exitDx=0;exitDy=0;entryX=0;entryY=0.5;entryDx=0;entryDy=0;" parent="1" source="6ounYKq_41smJYsyej_T-15" target="6ounYKq_41smJYsyej_T-16" edge="1">
          <mxGeometry relative="1" as="geometry" />
        </mxCell>
        <mxCell id="6ounYKq_41smJYsyej_T-15" value="IO" style="rounded=1;whiteSpace=wrap;html=1;absoluteArcSize=1;arcSize=14;strokeWidth=2;" parent="1" vertex="1">
          <mxGeometry x="600" y="120" width="50" height="280" as="geometry" />
        </mxCell>
        <mxCell id="6ounYKq_41smJYsyej_T-16" value="" style="rounded=1;whiteSpace=wrap;html=1;absoluteArcSize=1;arcSize=14;strokeWidth=2;" parent="1" vertex="1">
          <mxGeometry x="680" y="120" width="110" height="280" as="geometry" />
        </mxCell>
        <mxCell id="6ounYKq_41smJYsyej_T-34" style="edgeStyle=orthogonalEdgeStyle;rounded=0;orthogonalLoop=1;jettySize=auto;html=1;exitX=0.5;exitY=1;exitDx=0;exitDy=0;entryX=0.5;entryY=0;entryDx=0;entryDy=0;" parent="1" source="6ounYKq_41smJYsyej_T-17" target="6ounYKq_41smJYsyej_T-18" edge="1">
          <mxGeometry relative="1" as="geometry" />
        </mxCell>
        <mxCell id="6ounYKq_41smJYsyej_T-17" value="Init&lt;br&gt;Wokflow" style="rounded=1;whiteSpace=wrap;html=1;absoluteArcSize=1;arcSize=14;strokeWidth=2;" parent="1" vertex="1">
          <mxGeometry x="697.5" y="170" width="75" height="60" as="geometry" />
        </mxCell>
        <mxCell id="6ounYKq_41smJYsyej_T-35" style="edgeStyle=orthogonalEdgeStyle;rounded=0;orthogonalLoop=1;jettySize=auto;html=1;exitX=0.5;exitY=1;exitDx=0;exitDy=0;entryX=0.5;entryY=0;entryDx=0;entryDy=0;" parent="1" source="6ounYKq_41smJYsyej_T-18" target="6ounYKq_41smJYsyej_T-19" edge="1">
          <mxGeometry relative="1" as="geometry" />
        </mxCell>
        <mxCell id="6ounYKq_41smJYsyej_T-18" value="Generator Worflow" style="rounded=1;whiteSpace=wrap;html=1;absoluteArcSize=1;arcSize=14;strokeWidth=2;" parent="1" vertex="1">
          <mxGeometry x="697.5" y="250" width="75" height="60" as="geometry" />
        </mxCell>
        <mxCell id="6ounYKq_41smJYsyej_T-19" value="Evaluator&lt;br&gt;Worflow" style="rounded=1;whiteSpace=wrap;html=1;absoluteArcSize=1;arcSize=14;strokeWidth=2;" parent="1" vertex="1">
          <mxGeometry x="697.5" y="330" width="75" height="60" as="geometry" />
        </mxCell>
        <mxCell id="6ounYKq_41smJYsyej_T-20" value="WorflowOps" style="rounded=1;whiteSpace=wrap;html=1;absoluteArcSize=1;arcSize=14;strokeWidth=2;" parent="1" vertex="1">
          <mxGeometry x="827" y="120" width="103" height="80" as="geometry" />
        </mxCell>
        <mxCell id="6ounYKq_41smJYsyej_T-21" value="SFG" style="rounded=1;whiteSpace=wrap;html=1;absoluteArcSize=1;arcSize=14;strokeWidth=2;" parent="1" vertex="1">
          <mxGeometry x="827" y="220" width="103" height="80" as="geometry" />
        </mxCell>
        <mxCell id="6ounYKq_41smJYsyej_T-22" value="Zhanlu" style="rounded=1;whiteSpace=wrap;html=1;absoluteArcSize=1;arcSize=14;strokeWidth=2;" parent="1" vertex="1">
          <mxGeometry x="827" y="320" width="103" height="80" as="geometry" />
        </mxCell>
        <mxCell id="6ounYKq_41smJYsyej_T-23" value="Psa Server" style="text;strokeColor=none;fillColor=none;align=left;verticalAlign=middle;spacingLeft=4;spacingRight=4;overflow=hidden;points=[[0,0.5],[1,0.5]];portConstraint=eastwest;rotatable=0;" parent="1" vertex="1">
          <mxGeometry x="720" y="80" width="80" height="30" as="geometry" />
        </mxCell>
        <mxCell id="6ounYKq_41smJYsyej_T-24" value="Scheduler" style="text;html=1;strokeColor=none;fillColor=none;align=center;verticalAlign=middle;whiteSpace=wrap;rounded=0;" parent="1" vertex="1">
          <mxGeometry x="705" y="130" width="60" height="30" as="geometry" />
        </mxCell>
        <mxCell id="6ounYKq_41smJYsyej_T-40" style="edgeStyle=orthogonalEdgeStyle;curved=1;rounded=0;orthogonalLoop=1;jettySize=auto;html=1;entryX=0;entryY=0.5;entryDx=0;entryDy=0;" parent="1" source="6ounYKq_41smJYsyej_T-29" target="6ounYKq_41smJYsyej_T-38" edge="1">
          <mxGeometry relative="1" as="geometry" />
        </mxCell>
        <mxCell id="6ounYKq_41smJYsyej_T-29" value="" style="rounded=1;whiteSpace=wrap;html=1;absoluteArcSize=1;arcSize=14;strokeWidth=2;" parent="1" vertex="1">
          <mxGeometry x="190" y="130" width="110" height="280" as="geometry" />
        </mxCell>
        <mxCell id="6ounYKq_41smJYsyej_T-30" value="Common&lt;br&gt;Preparation" style="rounded=1;whiteSpace=wrap;html=1;absoluteArcSize=1;arcSize=14;strokeWidth=2;" parent="1" vertex="1">
          <mxGeometry x="207.5" y="180" width="75" height="60" as="geometry" />
        </mxCell>
        <mxCell id="6ounYKq_41smJYsyej_T-36" style="edgeStyle=orthogonalEdgeStyle;rounded=0;orthogonalLoop=1;jettySize=auto;html=1;exitX=1;exitY=0.5;exitDx=0;exitDy=0;entryX=0;entryY=0.5;entryDx=0;entryDy=0;curved=1;" parent="1" source="6ounYKq_41smJYsyej_T-31" target="6ounYKq_41smJYsyej_T-15" edge="1">
          <mxGeometry relative="1" as="geometry">
            <Array as="points">
              <mxPoint x="283" y="370" />
              <mxPoint x="510" y="370" />
              <mxPoint x="510" y="260" />
            </Array>
          </mxGeometry>
        </mxCell>
        <mxCell id="6ounYKq_41smJYsyej_T-31" value="Call Psa" style="rounded=1;whiteSpace=wrap;html=1;absoluteArcSize=1;arcSize=14;strokeWidth=2;" parent="1" vertex="1">
          <mxGeometry x="207.5" y="260" width="75" height="60" as="geometry" />
        </mxCell>
        <mxCell id="6ounYKq_41smJYsyej_T-32" value="Parse Response" style="rounded=1;whiteSpace=wrap;html=1;absoluteArcSize=1;arcSize=14;strokeWidth=2;" parent="1" vertex="1">
          <mxGeometry x="207.5" y="340" width="75" height="60" as="geometry" />
        </mxCell>
        <mxCell id="6ounYKq_41smJYsyej_T-33" value="RerankOp" style="text;html=1;strokeColor=none;fillColor=none;align=center;verticalAlign=middle;whiteSpace=wrap;rounded=0;" parent="1" vertex="1">
          <mxGeometry x="215" y="140" width="60" height="30" as="geometry" />
        </mxCell>
        <mxCell id="6ounYKq_41smJYsyej_T-39" style="edgeStyle=orthogonalEdgeStyle;curved=1;rounded=0;orthogonalLoop=1;jettySize=auto;html=1;" parent="1" source="6ounYKq_41smJYsyej_T-37" target="6ounYKq_41smJYsyej_T-29" edge="1">
          <mxGeometry relative="1" as="geometry" />
        </mxCell>
        <mxCell id="6ounYKq_41smJYsyej_T-37" value="PreRerankOps" style="rounded=1;whiteSpace=wrap;html=1;absoluteArcSize=1;arcSize=14;strokeWidth=2;" parent="1" vertex="1">
          <mxGeometry x="60" y="175" width="100" height="140" as="geometry" />
        </mxCell>
        <mxCell id="6ounYKq_41smJYsyej_T-38" value="PostRerankOps" style="rounded=1;whiteSpace=wrap;html=1;absoluteArcSize=1;arcSize=14;strokeWidth=2;" parent="1" vertex="1">
          <mxGeometry x="330" y="180" width="100" height="140" as="geometry" />
        </mxCell>
      </root>
    </mxGraphModel>
  </diagram>
</mxfile>
